# xmcd CD database file
#
# Track frame offsets:
#	150
#	14996
#	28163
#	43668
#	58520
#	75395
#	94516
#	109108
#	121196
#	135841
#
# Disc length: 1999 seconds
#
# Revision: 0
# Processed by: cddbd v1.5.2PL0 Copyright (c) Steve Scherf et al.
# Submitted via: CDex 1.51
#
DISCID=7707cd0a
DTITLE=Thomas Michael Riley - Tommy
DYEAR=1900
DGENRE=Country
TTITLE0=Leather 'n Loaded
TTITLE1=Johnson City
TTITLE2=In the Garden
TTITLE3=Givin' Up Hope
TTITLE4=That's Just Who I Am
TTITLE5=Hemingway's Own Gypsy
TTITLE6=Carryin' A Cross
TTITLE7=That'll Get Her Done
TTITLE8=Lead, Follow
TTITLE9=Deathbed Confession
EXTD=
EXTT0=
EXTT1=
EXTT2=
EXTT3=
EXTT4=
EXTT5=
EXTT6=
EXTT7=
EXTT8=
EXTT9=
PLAYORDER=
